<?xml version="1.0" encoding="UTF-8" standalone="no"?>
<svg id="svg2" xmlns:rdf="http://www.w3.org/1999/02/22-rdf-syntax-ns#" xmlns="http://www.w3.org/2000/svg" height="489.17pt" width="1004.3pt" version="1.1" xmlns:cc="http://creativecommons.org/ns#" xmlns:dc="http://purl.org/dc/elements/1.1/" viewBox="0 0 1004.3381 489.17419">
<g id="g5357">
<path id="rect5353" d="m541.72 0c-6.2985-0.031935-13.008 2.4665-18.047 5.8141-24.602 13.69-40.866 45.156-32.905 72.487-9.017 2.4433-20.286 3.2528-28.95 5.0703-1.6979-27.234-26.645-46.551-52.28-49.436-9.189-0.9898-17.756 6.3278-19.633 15.123-11.264 19.35-8.9538 46.1 4.7562 63.842 19.91 11.475-13.497 21.958-18.045 32.9-10.111-19.515-34.401-30.827-55.933-23.973-21.341 19.456-9.9167 61.23 17.006 70.3-2.3279 8.5928-12.082 15.739-16.231 24.705-9.0075-16.036-31.341-26.569-48.298-16.925-7.1104 14.92-7.6463 39.642 10.556 46.869 3.5494 0.56896-0.35104 6.1165-2.9 4.6172-21.608 7.8381-47.433 0.8663-62.864-15.953-16.06-15.1-23.298-36.338-31.864-56.036-6.9236-10.23 11.971-10.541 12.933-19.969 5.6577-11.558-7.7978-18.507-17.511-17.733-11.528 2.0432-12.457-12.224-15.248-19.911 2.4802-7.0088 15.251-7.6391 13.289-17.105 1.32-15.175-17.07-16.911-27.83-14.781-13.38-10.989-1.93-23.766-2.57-37.283-4.43-12.371-19.7-7.428-28.29-2.472-6.85-2.044-13.72-5.799-19.58-9.512-0.89-9.629 2.3-25.081-11.048-27.336-11.456 2.113-15.369 15.528-22.793 22.703-18.823 2.2716-36.695 11.827-48.602 26.712-0.79384 0.99235-1.5608 2.0093-2.3 3.0484-13.475 20.994-19.751 46.859-14.961 71.527 6.5863 10.448 19.434 12.998 30.852 12.242 19.986 13.317 47.343 20.834 70.034 9.7625 3.0684-0.48483 7.0182-4.2358 9.6094-1.2391 6.3546 60.747 22.884 122.87 60.019 172.49 35.804 43.2 91.242 62.696 144 76.222 2.099 13.38-7.5534 27.924-3.7062 41.816 4.973 14.919 22.87 15.503 35.661 17.625 1.5935 30.679 41.435 23.372 61.681 18.586 14.389-17.855 22.381-39.886 32.556-60.247 3.007-5.8678 3.13-17.012 12.092-16.494 31.881-0.82464 63.458-6.9186 95.345-6.6687 6.8582 12.801 9.3047 27.5 15.981 40.452 6.0082 19.325 30.467 27.176 48.3 19.992 6.5312-2.5687 7.217 6.6435 9.9282 10.231 9.1157 19.711 35.053 17.056 52.805 14.595 8.132-2.5805 23.628-7.4935 19.062-18.858-6.1976-20.264-9.2082-41.213-14.428-61.7-0.3776-1.8636-0.54864-4.1989 1.3703-5.3094 54.912-0.85646 110.31 4.3822 164.93-3.9812 49.309-8.0604 97.988-26.242 135.99-59.622 9.0156-6.6585 24.645-16.942 19.714-29.944-12-9.8635-28.539 1.2828-41.556 2.1141-5.3786-9.7513-11.643-26.86-26.194-23.405-9.4108 7.7094-7.5298 19.441-9.7922 29.728-6.5889 5.9863-17.806 4.3393-25.231 1.225 1.5062-13.722-5.2678-29.281-17.967-35.316-15.173 2.2902-27.195 17.452-26.898 32.989-5.9463 10.325-21.55 0.21745-29.68-1.7453 7.9146-15.165 7.0137-41.085-11.07-48.753-17.83-1.8025-33.313 12.16-37.419 28.761-10.306-3.8693-20.552-15.101-28.669-22.719 18.484-10.643 34.344-39.255 19.458-59.172-18.536-7.757-44.31-1.0122-54.341 17.209-7.2242-6.5204-11.817-16.493-18.027-23.945 26.13-3.4468 40.824-41.79 21.472-60.337-19.195-5.3861-43.732 0.7426-52.353 20.52-5.985-5.5566-11.021-12.174-16-18.619 25.472-9.0581 29.914-42.096 21.434-64.489-3.35-12.983-18.4-20.827-30.83-15.167-22.08 0.425-35.62 21.434-39.24 41.127-11.14-4.95-23.8-11.564-34.01-17.317 20.9-24.922 9.72-61.443-10.47-82.781-3.49-5.1243-8.73-7.1238-14.28-7.152zm66.489 109.43c0.044 0.30688 0.0978 0.61478 0.16248 0.92188-0.0648-0.3071-0.12024-0.61343-0.16408-0.92031zm65.5 61.505c0.0456 0.3372 0.10472 0.67437 0.17656 1.0094-0.072-0.335-0.13176-0.67061-0.17816-1.0078z" fill="#0f6f9f"/>
<path id="path4" d="m23.44 67.678c-2.9603 3.6992-5.5491 7.6881-7.6909 11.875-5.6271 18.063-12.316 37.633-7.3667 56.493 8.4663 12.732 22.354 4.2706 33.816 7.3193 23.907-5.1343 47.959-13.733 64.498-32.669-2.3802-3.1998-7.5229 1.1129-8.8348-2.9256 4.6621-9.3253 19.1-6.5301 23.981 0.83063 0.8136 5.301-5.1163 4.2948-8.2793 2.9609-16.434 22.89-44.635 32.942-70.357 37.971 22.31 12.144 50.894 11.625 72.969-0.97525 9.6422 66.495 22.75 139.45 71.485 190.15 45.853 43.212 109.43 59.913 170.56 66.223 9.0932-34.353 9.5723-72.703 26.185-105.43 1.752-1.7386 9.5454-16.313 10.169-8.8324-12.537 19.722-17.361 43.294-18.397 66.274-1.8896 10.428-7.285 20.83-5.6983 31.451-3.6614 28.397-10.386 56.365-13.935 84.635 12.42 11.544 31.047 10.156 46.081 6.5718 15.366-12.196 20.249-32.208 29.004-48.876 18.037-44.62 37.831-97.901 17.302-145.41 3.3886-5.5926 8.7597 2.8927 9.184 7.072 8.4354 14.694 4.8464 32.045 5.5405 48.291 1.826 21.708-10.955 44.358-9.7773 63.543 42.441-5.9858 85.05-10.006 127.86-10.924 2.6952 0.15043 8.6959 2.2941 7.8344-2.5098-9.1111-28.862-21.154-61.677-6.9022-90.895 7.3743 5.6838-3.4011 15.158-0.74564 22.662 2.1282 35.849 16.126 70.433 26.784 103.75 13.916 17.013 12.452 46.837 37.95 52.949 13.927 1.5531 29.437 0.48316 42.049-5.5693 0.59646-16.17-11.259-31.128-10.073-47.967-12.327-45.235-10.93-93.749-33.414-135.77 13.814 5.5256 16.355 28.331 21.648 42.471 6.5898 19.427 8.9048 40.108 13.588 59.612 34.387 3.2004 69.087 3.3239 103.66 3.0636 26.056 2.8993 50.909-6.2132 76.725-7.5008 27.956-7.8644 57.855-14.352 82.452-30.847 19.475-12.128 40.858-23.186 53.274-43.385-1.2614-2.0507-3.3722-5.0759-5.9682-3.8496-20.015 3.6689-38.284 14.316-58.887 15.128-13.982 0.56815-27.749 2.4636-41.487 4.548-31.277 1.8354-63.243-5.8602-91.67-17.885-65.13-23.22-95.33-88.94-136.04-139.27-32.64-36.35-72.88-69.02-120.94-81.287-23-4.465-46.74-5.069-69.91-1.033-68.89 21.29-110.79 85.35-152.96 139.01-16.295 23.635-46.219 38.264-74.756 30.29-29.219-7.2381-46.429-33.24-57.234-59.031-2.2529-16.481-13.4-30.205-15.961-46.635-15.56-40.73-29.56-88.834-73.257-108.31-6.717-2.965-13.852 0.515-20.806-1.502-20.59-2.436-40.389 8.14-53.217 24.17zm30.486-6.296c9.976-12.173 30.008-16.7 41.916-4.64 17.948 11.979 11.988 43.938-8.976 48.858-24.156 8.92-47.823-20.918-33.873-43.016 0.3-0.408 0.611-0.809 0.933-1.202zm369.81 65.388c12.45-15.034 41.835-4.2331 39.279 16.896-0.74512 14.856-20.259 26.84-32.919 17.055-10.673-4.3742-13.672-17.305-10.09-27.214 0.92751-2.6544 2.2006-4.8909 3.7295-6.7372zm-31.217 40.879c6.2331-8.2672 20.539-5.1885 24.755 4.1913 4.2903 9.5812-5.0676 20.68-14.802 20.495-9.5691-1.0729-17.14-13.163-11.607-21.751 0.45193-1.1036 1.0098-2.0801 1.6547-2.9354zm-0.16044 58.294c3.8668-4.5592 12.022-4.6418 16.101 0.0115 6.5671 6.9829-0.5827 20.142-9.8212 18.794-6.2088-1.7988-11.757-9.5716-7.9329-15.814 0.36882-1.1496 0.93744-2.1477 1.6535-2.992zm48.275-45.122c9.3034-12.043 30.116-13.045 39.8-0.8679 12.457 13.355 4.9326 39.205-13.811 41.89-20.383 5.4926-38.381-18.684-28.482-36.932 0.69105-1.4798 1.53-2.8436 2.4925-4.0894zm50.752-61.282c15.521-19.261 50.598-15.587 60.474 7.9694 14.711 23.242-8.2391 55.676-34.522 53.324-26.383-0.36836-44.837-33.804-29.449-55.901 1.0072-1.9635 2.182-3.7601 3.4973-5.3924zm-167.1 290.45c-0.91125 14.776-14.374 35.577 4.5721 44.026 4.972 4.16 20.856 10.45 21.9-0.0197 2.0851-14.004 6.6977-27.887 6.0137-42.126-10.711 0.40825-24.078-7.4774-32.486-1.8806zm169.68-180.74c6.7002-8.5557 24.213 1.2191 18.217 11.99-4.2253 14.571-27.299 3.6695-19.911-8.7275 0.42372-1.2966 1.0006-2.3776 1.6937-3.2626zm35.469-35.37c8.5546-11.595 29.83-11.306 36.275 2.3916 10.269 14.127-3.2577 36.061-20.487 33.738-14.578-1.0986-26.441-19.004-18.003-32.152 0.58217-1.4522 1.3304-2.7781 2.2153-3.9776zm50.514-33.541c11.411-15.123 36.389-15.707 47.805 0.62749 15.446 18.512-2.471 50.864-26.057 46.817-20.105-1.7748-31.591-24.36-24.823-42.287 0.86006-1.873 1.8952-3.5932 3.0757-5.1577zm31.372 69.438c3.9025-4.7421 11.722-5.7488 16.879-2.3415 6.3596 5.5335 4.0036 18.33-4.593 20.175-8.8736 2.3907-17.629-8.7613-13.011-16.835 0.22339-0.34915 0.46481-0.68214 0.72496-0.99831zm29.88-26.709c10.42-13.447 35.154 4.176 22.441 18.086-8.6152 16.943-36.32-2.8143-23.403-16.686 0.30459-0.49962 0.62605-0.96644 0.96217-1.4002zm-82.939 199.09c3.7848 12.404 8.5727 24.925 14.125 36.799 4.6404 15.777 28.454 23.542 41.578 14.416-9.4842-16.513-15.334-34.745-22.175-52.27-10.432-1.9818-24.077-1.2125-33.528 1.0544z" fill="#cddac4"/>
<path id="path6" fill="#3e526d" d="m16.558 65.779c11.828-16.626 30.824-27.337 50.901-29.76 7.424-7.175 11.337-20.591 22.793-22.704 13.348 2.2555 10.16 17.708 11.052 27.336 5.859 3.713 12.727 7.4702 19.57 9.5142 8.5908-4.9562 23.869-9.9006 28.291 2.4705 0.64127 13.517-10.803 26.295 2.5761 37.284 10.756-2.1297 29.148-0.39381 27.805 14.768 1.9624 9.4656-10.808 10.097-13.288 17.105 2.7912 7.6869 3.7206 21.953 15.249 19.91 9.7133-0.77418 23.169 6.1752 17.511 17.733-0.9615 9.4277-19.858 9.7384-12.935 19.969 8.5659 19.698 15.805 40.935 31.864 56.035 15.431 16.819 41.257 23.79 62.865 15.952 2.5489 1.4993 6.4485-4.0471 2.8991-4.6161-18.203-7.2269-17.666-31.949-10.555-46.87 16.957-9.6437 39.29 0.88885 48.297 16.925 4.1494-8.9654 13.905-16.11 16.233-24.703-26.923-9.0698-38.348-50.845-17.007-70.3 21.532-6.8536 45.823 4.4579 55.933 23.973 4.5487-10.942 37.955-21.425 18.045-32.9-13.71-17.743-16.02-44.491-4.7562-63.842 1.8766-8.7957 10.444-16.113 19.633-15.123 25.634 2.8852 50.582 22.201 52.28 49.435 8.6639-1.8175 19.932-2.6266 28.949-5.0699-7.9613-27.332 8.303-58.796 32.905-72.487 9.4852-6.3012 24.888-9.5942 32.329 1.3367 20.196 21.339 31.369 57.86 10.469 82.782 10.209 5.7535 22.871 12.37 34.01 17.315 3.6254-19.691 17.163-40.7 39.244-41.124 12.431-5.6607 27.474 2.1829 30.844 15.177 8.4795 22.393 4.0369 55.432-21.435 64.49 4.9795 6.4448 10.015 13.061 16 18.618 8.6209-19.778 33.158-25.905 52.353-20.519 19.352 18.548 4.6583 56.89-21.471 60.336 6.2097 7.4525 10.803 17.425 18.027 23.945 10.03-18.222 35.805-24.966 54.341-17.209 14.886 19.917-0.97557 48.529-19.459 59.172 8.1163 7.6181 18.363 18.85 28.669 22.719 4.1057-16.601 19.59-30.563 37.42-28.76 18.084 7.6682 18.985 33.587 11.071 48.752 8.1294 1.9628 23.732 12.068 29.679 1.7435-0.29691-15.538 11.727-30.699 26.9-32.989 12.699 6.0351 19.472 21.595 17.965 35.317 7.4257 3.1143 18.644 4.7607 25.232-1.2256 2.2624-10.287 0.38012-22.019 9.791-29.729 14.551-3.4554 20.816 13.653 26.194 23.404 13.018-0.83126 29.555-11.977 41.554-2.1139 4.9308 13.002-10.697 23.285-19.713 29.944-38.004 33.38-86.682 51.562-135.99 59.622-54.627 8.3634-110.02 3.1246-164.93 3.9811-1.9191 1.1105-1.7488 3.4472-1.3713 5.3108 5.2201 20.487 8.2305 41.434 14.428 61.698 4.5658 11.364-10.93 16.278-19.062 18.858-17.752 2.4606-43.691 5.1158-52.806-14.596-2.7111-3.5878-3.3972-12.799-9.9284-10.23-17.833 7.184-42.29-0.66845-48.298-19.993-6.6765-12.951-9.1241-27.65-15.982-40.451-31.887-0.24981-63.464 5.8436-95.345 6.6682-8.9622-0.51824-9.0864 10.626-12.093 16.494-10.175 20.361-18.166 42.392-32.555 60.248-20.246 4.7857-60.088 12.094-61.682-18.585-12.791-2.1222-30.69-2.7059-35.663-17.625-3.8472-13.892 5.807-28.437 3.708-41.817-52.758-13.526-108.2-33.022-144-76.222-37.135-49.621-53.664-111.74-60.019-172.49-2.5912-2.9968-6.5399 0.75399-9.6083 1.2388-22.691 11.071-50.049 3.5554-70.035-9.7618-11.417 0.75547-24.266-1.7942-30.852-12.243-4.7901-24.667 1.4856-50.533 14.961-71.527m-0.80929 13.775c-5.6271 18.063-12.315 37.633-7.3656 56.492 8.4663 12.732 22.352 4.2712 33.815 7.3199 23.907-5.1343 47.96-13.732 64.499-32.669-2.3802-3.1998-7.5227 1.1126-8.8346-2.9259 4.6621-9.3253 19.099-6.5296 23.981 0.83111 0.8136 5.301-5.1161 4.295-8.2791 2.9611-16.434 22.89-44.636 32.941-70.357 37.97 22.31 12.144 50.895 11.625 72.97-0.97511 9.6422 66.495 22.749 139.45 71.484 190.15 45.853 43.212 109.43 59.913 170.56 66.223 9.0932-34.353 9.5736-72.704 26.186-105.43 1.752-1.7386 9.5444-16.313 10.168-8.8316-12.537 19.722-17.361 43.294-18.396 66.273-1.8896 10.428-7.2857 20.83-5.699 31.451-3.6614 28.397-10.385 56.366-13.934 84.635 12.42 11.544 31.046 10.155 46.08 6.5707 15.366-12.196 20.249-32.207 29.004-48.875 18.037-44.62 37.832-97.9 17.303-145.41 3.3886-5.5926 8.7594 2.8921 9.1837 7.0714 8.4354 14.694 4.8459 32.045 5.54 48.29 1.8259 21.708-10.955 44.357-9.7768 63.543 42.441-5.9858 85.051-10.005 127.87-10.923 2.6952 0.15043 8.6957 2.2944 7.8342-2.5096-9.1111-28.862-21.155-61.677-6.9026-90.895 7.3743 5.6838-3.401 15.157-0.74555 22.661 2.1282 35.849 16.126 70.433 26.783 103.75 13.916 17.013 12.453 46.837 37.95 52.95 13.927 1.5531 29.437 0.48335 42.049-5.5691 0.59646-16.17-11.26-31.128-10.073-47.966-12.327-45.235-10.93-93.75-33.414-135.77 13.814 5.5256 16.354 28.331 21.648 42.471 6.5898 19.427 8.9064 40.108 13.59 59.612 34.387 3.2004 69.086 3.3233 103.65 3.0631 26.056 2.8993 50.909-6.2136 76.725-7.5013 27.956-7.8644 57.855-14.35 82.452-30.845 19.475-12.128 40.858-23.187 53.274-43.386-1.2614-2.0507-3.3717-5.076-5.9677-3.8497-20.015 3.6689-38.285 14.316-58.888 15.128-13.982 0.56816-27.749 2.4638-41.486 4.5482-31.277 1.8354-63.242-5.8604-91.669-17.885-65.13-23.19-95.33-88.91-136.04-139.24-32.64-36.35-72.88-69.02-120.94-81.287-23-4.464-46.74-5.068-69.91-1.032-68.89 21.289-110.79 85.349-152.96 139.01-16.295 23.635-46.219 38.263-74.757 30.289-29.219-7.2381-46.429-33.239-57.234-59.03-2.253-16.481-13.4-30.205-15.961-46.635-15.56-40.73-29.56-88.835-73.257-108.31-6.717-2.965-13.852 0.515-20.806-1.502-25.342-2.998-49.486 13.714-60.909 36.046m61.71-46.287c0.65948 6.6436 13.096 2.8337 18.006 4.2453 3.2339-5.8164 1.3086-15.329-5.6474-17.424-6.1334 1.66-8.58 8.7715-12.358 13.179m49.71 19.107c-2.6782 7.2601 12.461 21.558 16.381 11.687 5.6686-10.506-8.1117-19.951-16.381-11.687m27.982 43.771c1.5884 7.4521 6.9806 25.426 15.624 15.152 10.987-9.4342-7.299-23.067-15.624-15.152m20.919 52.185c-0.21837 6.6267 5.6142 24.171 13.825 14.931 11.33-8.6418-5.35-21.582-13.825-14.931m143.5-14.834c-3.7533 14.829-1.3867 32.748 8.7213 44.673 18.992 19.715 28.893-15.758 40.184-25.805-2.1572-20.237-34.788-33.002-48.905-18.868m78.001-85.929c-9.8856 20.462-11.618 53.358 10.948 66.034 14.426-9.4361 29.212-19.008 43.579-28.579 3.5928-24.771-22.354-40.38-43.244-44.81-4.4536 0.93388-8.9877 3.2302-11.283 7.3546m-119.42 159.22c-4.5745 11.686-2.1625 28.126 9.1111 34.808 10.694 4.7348 17.709-8.8855 23.963-14.996 8.1691-16.442-21.984-31.316-33.074-19.812m233.39-181.27c-10.404 14.464-21.187 34.932-12.838 52.498 20.165 1.4401 40.185 4.3572 59.725 9.0473 20.89-21.88 11.73-59.972-11.07-77.37-13.71-5.6229-27.83 5.493-35.82 15.825m-187.25 384.47c-0.91125 14.776-14.374 35.577 4.5716 44.026 4.972 4.16 20.856 10.451 21.901-0.0188 2.0851-14.004 6.6981-27.888 6.0141-42.126-10.711 0.40825-24.078-7.4773-32.486-1.8806m294.71-325.2c-5.1271 7.6857-13.632 17.573-10.109 27.402 12.4 8.9188 24.165 19.743 37.343 27.288 22.973-9.4739 23.077-39.77 15-59.363-10.328-13.957-32.65-6.9239-42.234 4.6724m54.822 82.045c-2.2348 11.06 11.884 21.078 18.755 29.484 21.321 0.13537 31.159-28.118 21.917-44.503-14.402-5.0215-33.96 0.28081-40.672 15.019m-115.55 235.32c3.7848 12.404 8.573 24.924 14.125 36.798 4.6404 15.777 28.454 23.542 41.577 14.417-9.4842-16.513-15.334-34.746-22.176-52.271-10.432-1.9818-24.076-1.2115-33.527 1.0554m165.27-173.98c-7.3075 11.697 7.0868 19.475 12.706 27.773 8.1287 13.128 21.932-0.23614 25.385-9.5463 3.8406-8.2666 10.086-23.398 0.68406-29.966-13.728-3.599-29.418 1.0596-38.776 11.739m66.642 54.54c-12.417 17.066 12.108 25.188 25.054 26.402 12.918-4.7928 10.196-23.133 4.6544-32.694-6.2615-14.496-23.984-2.0555-29.709 6.2921m76.274 16.079c-2.4055 5.4761-9.3735 13.43-3.8831 18.839 8.8168 2.4153 18.442 2.0432 27.419 0.52316 6.0085-8.2388 1.5133-20.63-4.7606-27.662-7.0891-5.9811-14.477 3.055-18.776 8.2998m68.595-1.4818c-1.2753 4.979-4.3331 11.38-1.4676 16.21 5.8014 3.1075 13.649-0.0659 18.176-4.049 2.0025-7.6143-10.778-21.658-16.708-12.161z"/>
<path id="path10" fill="#f1f6eb" d="m52.992 62.585c9.609-13.067 30.558-18.292 42.85-5.842 17.948 11.978 11.988 43.937-8.976 48.857-24.156 8.92-47.823-20.918-33.874-43.015m17.559 13.327c-1.2739 7.5137 7.3123 12.548 12.772 6.1048 7.0957-9.6993-9.9781-16.355-12.772-6.1048z"/>
<path id="path14" fill="#0d0d0c" d="m70.551 75.912c2.7937-10.25 19.868-3.5944 12.772 6.1048-5.4595 6.4434-14.046 1.4089-12.772-6.1048z"/>
<path id="path28" fill="#458bc9" d="m423.74 126.77c-1.5289 1.8463-2.802 4.0829-3.7295 6.7372-3.5817 9.9093-0.58259 22.84 10.09 27.214 12.66 9.7852 32.174-2.1983 32.919-17.055 2.5557-21.129-26.83-31.931-39.279-16.896zm-31.217 40.879c-0.64481 0.85523-1.2027 1.8317-1.6547 2.9354-5.5327 8.5883 2.0384 20.678 11.607 21.751 9.7344 0.18459 19.092-10.914 14.802-20.495-4.2159-9.3798-18.522-12.459-24.755-4.1913zm-0.16044 58.294c-0.71606 0.84432-1.2847 1.8423-1.6535 2.992-3.8242 6.2424 1.7241 14.015 7.9329 15.814 9.2384 1.3471 16.388-11.812 9.8212-18.794-4.0784-4.6533-12.234-4.5707-16.101-0.0115zm48.275-45.122c-0.96241 1.2459-1.8014 2.6096-2.4925 4.0894-9.8988 18.249 8.0988 42.425 28.482 36.932 18.743-2.685 26.267-28.534 13.811-41.89-9.6842-12.177-30.497-11.175-39.8 0.8679zm50.752-61.282c-1.3153 1.6323-2.4901 3.4288-3.4973 5.3924-15.388 22.097 3.0662 55.533 29.449 55.901 26.283 2.3525 49.233-30.082 34.522-53.324-9.8757-23.557-44.953-27.23-60.474-7.9694zm2.5779 109.71c-0.69328 0.88494-1.27 1.9661-1.6937 3.2626-7.3883 12.397 15.686 23.299 19.911 8.7275 5.9956-10.771-11.517-20.546-18.217-11.99zm35.469-35.37c-0.88494 1.1995-1.6332 2.5254-2.2153 3.9776-8.4385 13.148 3.4251 31.054 18.003 32.152 17.229 2.3222 30.757-19.611 20.487-33.738-6.4443-13.697-27.72-13.987-36.275-2.3916zm50.514-33.541c-1.1805 1.5644-2.2156 3.2847-3.0757 5.1577-6.7682 17.927 4.7178 40.512 24.823 42.287 23.586 4.0466 41.503-28.305 26.057-46.817-11.416-16.334-36.394-15.75-47.805-0.62749zm31.372 69.438c-0.26015 0.31617-0.50144 0.64926-0.72496 0.99831-4.6182 8.074 4.137 19.226 13.011 16.835 8.5965-1.8452 10.953-14.642 4.593-20.175-5.157-3.4073-12.976-2.4006-16.879 2.3415zm29.88-26.709c-0.33587 0.43398-0.65756 0.90063-0.96217 1.4002-12.917 13.871 14.788 33.629 23.403 16.686 12.713-13.91-12.022-31.533-22.441-18.086z"/>
</g>
</svg>
